<svg xmlns="http://www.w3.org/2000/svg" xmlns:xlink="http://www.w3.org/1999/xlink" version="1.1" x="0px" y="0px" viewBox="0 0 1700.791 1700.789" enable-background="new 0 0 1700.791 1700.789" xml:space="preserve"><g><g><path d="M786.653,1236.651h-64.689l45.708-305.119c-49.562-2.082-98.168-6.094-141.365-11.67l-81.497,105.136h-33.87    l18.741-123.277c-32.931-9.316-51.817-18.264-51.817-33.998c0-14.207,16.05-25.327,51.829-35.729l-18.741-124.359h33.874    l81.498,105.859c50.378-6.543,96.75-10.687,141.348-12.629l-45.739-304.884h64.725l160.137,303.67    c103.036,2.306,180.237,9.169,229.512,20.409c47.521,10.839,70.621,26.108,70.621,46.68c0,20.569-23.107,35.808-70.644,46.585    c-49.183,11.15-126.388,17.971-229.508,20.276L786.653,1236.651z M739.378,1221.651h38.235l160.021-302.858l4.412-0.092    c104.328-2.188,182.021-8.918,230.919-20.005c51.301-11.631,58.961-25.014,58.961-31.956c0-11.826-21.489-23.51-58.957-32.056    c-48.986-11.173-126.675-17.947-230.908-20.132l-4.416-0.093L777.609,510.981h-38.259l45.64,304.219l-8.38,0.314    c-47.949,1.8-97.87,6.187-152.613,13.412l-4.287,0.565l-82.266-106.857h-9.062l18.127,120.281l-6.449,1.749    c-45.871,12.437-47.195,22.007-47.195,23.058c0,0.812,0.702,3.817,9.729,8.425c7.794,3.979,19.699,8.07,37.462,12.879l6.461,1.749    l-18.125,119.223h9.066l82.269-106.133l4.273,0.567c46.205,6.127,98.976,10.43,152.609,12.442l8.378,0.314L739.378,1221.651z"/></g></g></svg>